<?xml version="1.0" encoding="UTF-8"?><svg id="Layer_2" xmlns="http://www.w3.org/2000/svg" viewBox="0 0 314.49 102.48"><g id="Layer_4"><g><path d="M170.93,102.48c-8.03,0-15.57-3.13-21.25-8.8s-8.8-13.22-8.8-21.25,3.13-15.57,8.8-21.25,13.22-8.8,21.25-8.8c6.02,0,11.83,1.78,16.81,5.14,2.27,1.54,2.87,4.63,1.34,6.9-1.54,2.27-4.63,2.87-6.9,1.34-3.32-2.25-7.21-3.43-11.24-3.43-11.09,0-20.11,9.02-20.11,20.11s9.02,20.11,20.11,20.11c4.16,0,8.16-1.26,11.55-3.64,2.25-1.58,5.34-1.04,6.92,1.21,1.58,2.25,1.04,5.35-1.21,6.92-5.07,3.57-11.04,5.45-17.27,5.45Z" fill="#7dd85e"/><path d="M91.74,102.48c-14.23,0-25.81-11.58-25.81-25.81V43.99c0-2.74,2.22-4.97,4.97-4.97s4.97,2.22,4.97,4.97v32.69c0,8.75,7.12,15.87,15.87,15.87s15.87-7.12,15.87-15.87V43.99c0-2.74,2.22-4.97,4.97-4.97s4.97,2.22,4.97,4.97v32.69c0,14.23-11.58,25.81-25.81,25.81Z" fill="#7dd85e"/><path d="M223.94,39.02c-5.98,0-11.49,2.04-15.87,5.47V8.08c0-2.74-2.22-4.97-4.97-4.97s-4.97,2.22-4.97,4.97V97.51c0,2.74,2.22,4.97,4.97,4.97s4.97-2.22,4.97-4.97v-32.69c0-8.75,7.12-15.87,15.87-15.87s15.87,7.12,15.87,15.87v32.69c0,2.74,2.22,4.97,4.97,4.97s4.97-2.22,4.97-4.97v-32.69c0-14.23-11.58-25.81-25.81-25.81Z" fill="#7dd85e"/><path d="M284.44,102.48c-8.03,0-15.57-3.13-21.25-8.8-5.67-5.67-8.8-13.22-8.8-21.24v-.02h0c0-8.03,3.13-15.57,8.8-21.24,5.68-5.68,13.22-8.8,21.25-8.8s15.57,3.13,21.25,8.8c5.68,5.68,8.8,13.22,8.8,21.25,0,.04,0,.08,0,.12l-.03,4.93-49.52-.07c2.22,8.69,10.12,15.14,19.49,15.14,6.22,0,12-2.81,15.84-7.72,1.69-2.16,4.82-2.54,6.98-.85,2.16,1.69,2.54,4.82,.85,6.98-5.74,7.33-14.37,11.53-23.66,11.53Zm-19.5-35.01l39.01,.06c-2.19-8.73-10.11-15.21-19.51-15.21s-17.28,6.45-19.5,15.15Z" fill="#7dd85e"/><path d="M187.11,19.57h-52.15V4.97c0-2.74-2.22-4.97-4.97-4.97s-4.97,2.22-4.97,4.97v14.6h-12.45c-2.74,0-4.97,2.22-4.97,4.97s2.22,4.97,4.97,4.97h12.45V97.51c0,2.74,2.22,4.97,4.97,4.97s4.97-2.22,4.97-4.97V29.5h52.15c2.74,0,4.97-2.22,4.97-4.97s-2.22-4.97-4.97-4.97Z" fill="#7dd85e"/><g><path d="M51.3,51.18c-5.68-5.68-13.22-8.8-21.25-8.8-7.5,0-14.59,2.73-20.11,7.72V8.08c0-2.74-2.22-4.97-4.97-4.97S0,5.33,0,8.08V72.43c0,8.03,3.13,15.57,8.8,21.25,5.68,5.68,13.22,8.8,21.25,8.8s15.57-3.13,21.25-8.8c5.68-5.68,8.8-13.22,8.8-21.25s-3.13-15.57-8.8-21.25Zm-21.25,41.37c-11.09,0-20.11-9.02-20.11-20.11s9.02-20.11,20.11-20.11,20.11,9.02,20.11,20.11-9.02,20.11-20.11,20.11Z" fill="#7dd85e"/><circle cx="30.05" cy="72.43" r="11.88" fill="#7dd85e"/></g></g></g></svg>